/* XPM */
static char * drop_xpm[] = {
"50 50 6 1",
" 	c #363434",
".	c #36421A",
"+	c #445C0D",
"@	c #DAB733",
"#	c #382117",
"$	c #858585",
"   .............          ++++++++++++++++++++++++",
"+++.......................++++++++++++++++++++++++",
"+++++++++++...............++++++++++++++++++++++++",
"+++++++++++++++++++@@@@@@@@@@@................#   ",
"####++++++######@@@@@@@@@@@@@@@@@.............####",
"####$$$$$+####@@@@@@@@@@@@@@@@@@@@@++++++++.......",
"####..... ##@@@@@@@@@@@@@@@@@@@@@@@@@++++++$......",
"...........@@@@@@@@@@@@@@@@@@@@@@@@@@@+++++$ #####",
"..........@@@@@@@@@@@@@@@@@@@@@@@@@@@@@###########",
"  +++++++@@@@@@@@@@@@@@@@@@@@@@@@@@@@@@@......... ",
"##++++++@@@@@@@@@@@@@@@@@@@@@@@@@@@@@@@@@.........",
"###++++@@@@@@@@@@@@@@@@@@@@@@@@@@@@@@@@@@@........",
" ###  @@@@@@@@@@@@@@@@@@@@@@@@@@@@@@@@@@@@@######.",
"...##@@@@@@@@@@@@@@@@@@@@@@@@@@@@@@@@@@@@@@@######",
".....@@@@@@@@@@@@@@@@@@@@@@@@@@@@@@@@@@@@@@@$$$$$$",
"....@@@@@@@@@@@@@@@@@@@@@@@@@@@@@@@@@@@@@@@@@+++$$",
"++++@@@@@@@@@@@@@@@@@@@@@@@@@@@@@@@@@@@@@@@@@+++++",
"+++@@@@@@@@@@@@@@@@@@@@@@@@@@@@@@@@@@@@@@@@@@@++++",
"+++@@@@@@@@@@@@@@@@@@@@@@@@@@@@@@@@@@@@@@@@@@@++++",
"+++@@@@@@@@@@@@@@@@@@@@@@@@@@@@@@@@@@@@@@@@@@@....",
"$$@@@@@@@@@@@@@@@@@@@@@@@@@@@@@@@@@@@@@@@@@@@@@...",
"  @@@@@@@@@@@@@@@@@@@@@@@@@@@@@@@@@@@@@@@@@@@@@...",
"##@@@@@@@@@@@@@@@@@@@@@@@@@@@@@@@@@@@@@@@@@@@@@ ..",
"..@@@@@@@@@@@@@@@@@@@@@@@@@@@@@@@@@@@@@@@@@@@@@## ",
"..@@@@@@@@@@@@@@@@@@@@@@@@@@@@@@@@@@@@@@@@@@@@@###",
"..@@@@@@@@@@@@@@@@@@@@@@@@@@@@@@@@@@@@@@@@@@@@@..#",
"..@@@@@@@@@@@@@@@@@@@@@@@@@@@@@@@@@@@@@@@@@@@@@...",
"..@@@@@@@@@@@@@@@@@@@@@@@@@@@@@@@@@@@@@@@@@@@@@...",
"..@@@@@@@@@@@@@@@@@@@@@@@@@@@@@@@@@@@@@@@@@@@@@###",
"..@@@@@@@@@@@@@@@@@@@@@@@@@@@@@@@@@@@@@@@@@@@@@###",
"..@@@@@@@@@@@@@@@@@@@@@@@@@@@@@@@@@@@@@@@@@@@@@$$$",
"+++@@@@@@@@@@@@@@@@@@@@@@@@@@@@@@@@@@@@@@@@@@@$$$$",
"+++@@@@@@@@@@@@@@@@@@@@@@@@@@@@@@@@@@@@@@@@@@@++++",
"+++@@@@@@@@@@@@@@@@@@@@@@@@@@@@@@@@@@@@@@@@@@@++++",
"$$$$@@@@@@@@@@@@@@@@@@@@@@@@@@@@@@@@@@@@@@@@@+++++",
"$$$$@@@@@@@@@@@@@@@@@@@@@@@@@@@@@@@@@@@@@@@@@.....",
"$$$$$@@@@@@@@@@@@@@@@@@@@@@@@@@@@@@@@@@@@@@@......",
".....@@@@@@@@@@@@@@@@@@@@@@@@@@@@@@@@@@@@@@@..... ",
"......@@@@@@@@@@@@@@@@@@@@@@@@@@@@@@@@@@@@@.......",
".......@@@@@@@@@@@@@@@@@@@@@@@@@@@@@@@@@@@........",
"..... ##@@@@@@@@@@@@@@@@@@@@@@@@@@@@@@@@@#####....",
".......##@@@@@@@@@@@@@@@@@@@@@@@@@@@@@@@..........",
"......... @@@@@@@@@@@@@@@@@@@@@@@@@@@@@...........",
"...........@@@@@@@@@@@@@@@@@@@@@@@@@@@............",
" ...........@@@@@@@@@@@@@@@@@@@@@@@@@++++#########",
"+++++.........@@@@@@@@@@@@@@@@@@@@@++++++++++++$$$",
"++++++..........@@@@@@@@@@@@@@@@@$++++++++++++++++",
"++++++++ ##........@@@@@@@@@@@$$$$$$$$$+++++++++++",
"   +++++++ ## ................... ##############++",
"### ++++++++ ##    ..............     ##       ##+"};
