/* XPM */
static char * escape_xpm[] = {
"50 50 12 1",
" 	c #363434",
".	c #36421A",
"+	c #445C0D",
"@	c #180A29",
"#	c #382117",
"$	c #858585",
"%	c #9AEFF1",
"&	c #98EFF1",
"*	c #0AF0F5",
"=	c #0BF0F5",
"-	c #0DEDF2",
";	c #0FEDF2",
"   .............          ++++++++++++++++++++++++",
"+++.......................++++++++++++++++++++++++",
"+++++++++++...............++++++++++++++++++++++++",
"+++++++++++++++++++++@@@@@@@@.................#   ",
"####++++++#######+++@@@@@@@@@@++..............####",
"####$$$$$+#####@@@@@@@@%%&&@@@@@@@@++++++++.......",
"####..... ####@@@@@@@@%%%&&&@@@@@@@@+++++++$......",
"...........@@@@@@&&&&%%%%&&&&&&&&@@@@@@++++$ #####",
"...........@@@@@&&&&&&%%&&&&&&&&&&@@@@@###########",
"  ++++++++@@@&&&&&&&&&&*******&&&&&&&@@@......... ",
"##+++++++@@@&&&&&&&&&&**********&&&&&&@@@.........",
"###++++++@@%%&&&&&&&&**=*********&&&&&&@@.........",
" ###  $$@@@%%%&&&&***************&&&&&%@@@#######.",
"...## $$@@%%%%%=******************&&&%%%@@########",
"........@@%%%%&*******************&&%%%%@@+$$$$$$$",
"........@@%%%%%*******************&%%%%%@@++++++$$",
"++++....@@%%%%%&******************%%%%%%@@++++++++",
"++++++++@@%%%%%&&****************&%%%%%%@@++++++++",
"++++++++@@%%%%%&&****************&%%%%%%@@++++++++",
"++++++++@@%%%%%&&****************&%%%%%%@@........",
"$$$$$+++@@%%%%%&&*************---&%%%%%%@@........",
"        @@%%%%%&&************;;;;&%%%%%%@@  ......",
"########@@%%%%&&************;;;;;&&%%%%%@@####+ ..",
"........@@%%%&&*************;;;;;;&%%%%%@@+++++## ",
"........@@%%%&*************-----;;&%%%%%@@+++++###",
"........@@%%%**************--------%%%%%@@.......#",
"........@@&&&**************--------&%%%%@@........",
"........@@&&&**************--------&&%%%@@........",
"........@@%&&*************---------&&&%%@@########",
"........@@%%&*************;;;;;----&&&&&@@########",
"........@@%%%****=====****;;;;;;;;;;&&&&@@$$$$$$$$",
"+++++++.@@%%%*************;;;;;;;;;;&&&%@@++++$$$$",
"++++++++@@%%%%************---;;;;;;;&&%%@@++++++++",
"++++++++@@%%%%&***********---------;&%%%@@++++++++",
"$$$$$+++@@%%%%&**********-----------%%%%@@..++++++",
"$$$$$$$$@@%%%%&&&********----------&&%%%@@........",
"$$$$$$$$@@%%%%&&&&*******;;;*****--&&%%%@@........",
"........@@%%%%&&&&&*****;;;*****=*-&%%%%@@....... ",
"........@@%%%&&&&&&&===**;******===&%%%%@@........",
"........@@%%&&&&&&&&&***********===&%%%%@@........",
"..... ##@@%&&&&&&&&&&***************%%%%@@####....",
".......#@@&&&&&&&&&&&***************&%%%@@........",
"........@@&&&&&&&&&&&***************&&%%@@........",
"........@@&&&&&&&&&&&**************&&&&%@@........",
" .......@@&&&&&&&&&&=**************%%%%%@@########",
"+++++...@@&&&&&&&&&***===*********&%%%%%@@+++++$$$",
"++++++..@@&&&&&&&&***************&&%%%%%@@++++++++",
"++++++++@@&&&&&&&***************&&%%%%%%@@++++++++",
"   +++++@@&&&&&&***************&&&%%%%%%@@######++",
"### ++++@@&&&&&-***************&&&%%%%%%@@     ##+"};
