/* XPM */
static char * ground_xpm[] = {
"50 50 5 1",
" 	c #363434",
".	c #36421A",
"+	c #445C0D",
"@	c #382117",
"#	c #858585",
"   .............          ++++++++++++++++++++++++",
"+++.......................++++++++++++++++++++++++",
"+++++++++++...............++++++++++++++++++++++++",
"++++++++++++++++++++++........................@   ",
"@@@@++++++@@@@@@@+++++++++++++++..............@@@@",
"@@@@#####+@@@@@@@@@++++++++++++++++++++++++.......",
"@@@@..... @@@@@@@@@ +++++++++++++++++++++++#......",
"..............@@@@@.......... +++++++++++++# @@@@@",
"..................................... @@@@@@@@@@@@",
"  +++++++++...................................... ",
"@@++++++++++++++++ @@@@@@@@@@@....................",
"@@@++++++++++++++++++++#+++++      ...............",
" @@@  ###+++++++++++++++++++++++++####@@@@@@@@@@@.",
"...@@ ##########+++++++++++++++++++++++##@@@@@@@@@",
"..............       ++++++++++++++++++++++#######",
"........................  ++++++++++++++++++++++##",
"++++..........................++++++++++++++++++++",
"+++++++++   ...@@@@@@..............+++++++++++++++",
"+++++++++++++   @@@@@@@@@@@@@@@@@@........++++++++",
"++++++++++++++++++   @@@@@@@@@  .@@@..............",
"#####++++++++++++++++++++@@@@@@@@@    ............",
"        #@@@@@@+++++++++++++++++++#####@@@  ......",
"@@@@@@@@@@@@@@@@++++++++++++++++++++++++++@@@@+ ..",
"................@@@@@++++++++++++++++++++++++++@@ ",
"..................... @@@@@@@@@@+++++++++++++++@@@",
".................................................@",
"..................................................",
"..................................................",
"......................++++........... @@@@@@@@@@@@",
"......................+++++++++...... @@@@@@@@@@@@",
".................#####+++++++++++++++#############",
"+++++++.............@@@ ++++++++++++++++++++++####",
"+++++++++++............... @@+++++++++++++++++++++",
"++++++++++++++++...................+++++++++++++++",
"#####++++++++++++++++.......................++++++",
"#########++++++++++++++++.........................",
"##############++++++++++++++++....................",
"...........  ######+++++++++++++#................ ",
"...................####+++++++++####@@@...........",
"............................++++####  @@@ ........",
"..... @@ ...++++++......................@@@@@@....",
".......@@@##+++++++++++...........................",
"......... @@++++++++++++++++++....................",
"............####++++++++++++++++++++@@............",
" ...............#####++++++++++++++++++++@@@@@@@@@",
"+++++...............  ######+++++++++++++++++++###",
"++++++................... ########++++++++++++++++",
"++++++++ @@.................. #########+++++++++++",
"   +++++++ @@ ................... @@@@@@@@@@@@@@++",
"@@@ ++++++++ @@    ..............     @@       @@+"};
