/* XPM */
static char * spawn_xpm[] = {
"50 50 13 1",
" 	c #363434",
".	c #36421A",
"+	c #23ECF1",
"@	c #26EDF1",
"#	c #445C0D",
"$	c #23EDF1",
"%	c #A9F5F7",
"&	c #382117",
"*	c #858585",
"=	c #37EFF4",
"-	c #24ECF1",
";	c #AAF5F7",
">	c #B1F6F8",
"   .............      ++++@@######################",
"###...................$$$%@@######################",
"###########...........$$%$@@######################",
"######################$$$%$$..................&   ",
"&&&&######&&&&&&&#####@@@@@@####..............&&&&",
"&&&&*====@-&&&&&&&&###@@%%@@###########@@@@$$.....",
"&&&&.$$$$+--&&&&&&& ##@@%%@@##########@@@@@=$.....",
".....$$%$$$$..&&&&&...$$%%$$. ########@@@@%=+&&&&&",
".....$$$%$$$$$$.......$$%%$$........$+---%---&&&&&",
"  ###@@@@@@$$$$.......$$%%$$.......$$$$$$$$$$.... ",
"&&###@@@@@%@@@@### &&&--%%--&&.....$$$$%$$$$$.....",
"&&&###@@@@@%@@@#######@=%%@@#      $$$%$$$$$......",
" &&&  **=@@@%%@@@@@@@@@%%%%@@@@@@@==;;----&&&&&&&.",
"...&& **====;;;=@@@@@@@%%%%@@@@@@@@%>%@==-&&&&&&&&",
"........$$$$$%%%+++++@@%%%%@@@@@@@%%%@@@@@#*******",
"............$$%%%%$$$$$%%%%@@@@@%%%%@@##########**",
"####........$$$%%%%%$$$%%%%$$$%%%%%@@@############",
"#########   $$$%%%%%-$$%%%%$$$%%%%%@@@############",
"############@+++%%%%%%%%%%%%%%%%%%$$$$....########",
"############@@@@%%%%%%%%%%%%%%%%%%--$$............",
"*****#######@@@@@@%%%%%%%%%%%%%%--++++............",
"        *&&&---@@@%%%%%%%%%%%%%%@@====*&&&  ......",
"----------------@@%%%%%%%%%%%%%%@@@@@@@@@@----@+$$",
"$$$$$$$$$$$$%%%%%%%%%%%%%%%%%%%%%%%%%%@@@@@@@@@--+",
"$%$%$%%%%%%%%%%%%%%%%%%%%%%%%%%%%%%%%%%%%%%%@@%---",
"$$%$$%%%%%%%>%%%%%%%%%%%%%%%%%%%%%%%%>%%%%%%$%$%$-",
"$$$$$$$$$$$$%%%%%%%%%%%%%%%%%%%%%%%%%%$$$$$$$$$$$$",
"$$$$$$$$$$$$$$$$$$%%%%%%%%%%%%%%$$$$$$$$$$$$$$$$$$",
"............$$$$$$%%%%%%%%%%%%%%$$$$$+&&&&&&&&&&&&",
"............$$$$$$%%%%%%%%%%%%%%$$$$$+&&&&&&&&&&&&",
"............$$$$%;;;;;%%%%%%%%%%%%@@@=************",
"#######.....$$$$%%%%%%%%%%%%%%%%%%@@@@########****",
"###########.$$$%%%%%$$$%%%%--@%%%%%@@@############",
"############@@@%%%%%$$$%%%%$$$%%%%%@@@############",
"*****#######@@%%%%@@@$$%%%%$$$$$%%%%$$......######",
"*********@@@@%%%@@@@@@@%%%%$$$$$$$%%%$$$$$........",
"********====;;%@@@@@@@@%%>%@@@$$$$$%%%$$$$........",
"........$$$+%;=====@@@@%%>%@@@@@=$$$%%$$$$....... ",
"......$$$$$%$$$....***=@%%@@####***=--%$$$$$......",
".....$$$$$%$$$$.......$$%%$$####***=++-%-+$$$.....",
".....+--+$$$@@@###....$$%%$$.......$$$$$-----&....",
".....$$-%-==@@@#######@$%%$$.......$$$$$$%$$$.....",
".....$$%$+--##########@@%%@@##........$$$$%$$.....",
".....$$$$$$$****######@@%%@@########&&$$$$$$$.....",
" ....$$$$$$.....*****#@@%%@@###########@@----&&&&&",
"#####...............  ======###################***",
"######................$$%+==******################",
"######## &&...........$$$%$$. *********###########",
"   ####### && ........$$%$$$..... &&&&&&&&&&&&&&##",
"&&& ######## &&    ...$$$$$$.....     &&       &&#"};
