/* XPM */
static char * wall_xpm[] = {
"50 50 3 1",
" 	c #0D0B0B",
".	c #180A29",
"+	c #363434",
"   ....  ....    ++....    +    ++    ........+   ",
"  ..... .....   ++.....        ....  ........+    ",
" ............   .......       .....  ........     ",
"...........    ......         ..... ........+    +",
"..........    ......         ....   .......+    ++",
".........    .....          .....  .......+     +.",
".......     .....          .....  .......+     +..",
".....      .....          .....   ......+   ......",
"....      .....     +    .....   ......+    ......",
"+++      .....     +    .....   +.....+    .......",
"++     ......    ....   ....    ......     .......",
"      ......    .....  ....    ......     ....... ",
"     ......    ...... .....   +....+     .......  ",
"    .....    ......  .....    ....++    +......   ",
"  +.....    ......  .....    .....+     ......    ",
"++.....    ......  .....    .....+     .......    ",
"......    .....   .....    .....+     .......    .",
".....   ......   .....    +....+     .......    ..",
"....   ......   .....    .....+     +......    ...",
"..    ......   .....     .....     +......   .....",
".    .....    .....     .....+    +......    .....",
"   ......    .....     .....+     .......   ......",
"  ......    .....     ......     .......   .......",
" ......    +....     .......    .......   ........",
".....     +....     +......    .......   ........ ",
"....      .....    .......    .......   ........  ",
"...     +.....    +......    .......   ........   ",
"..     +.....    +......    .......+  ........    ",
".     +.....    +.....+    ........  .......     +",
"     +......  +......+    ........  .......     ..",
"   +......   ++.....+    ........  .......     ...",
"  +.......  +......    .......++  .......     ....",
"+........  +......+   ........   .......     .....",
"........  +......   ........+   .....+     +......",
".......  +.....+   ........+   .....+     ......  ",
"......  ......+  ........++   .....+     ......   ",
".....  ......  .........+    .....+     ......    ",
".... .......  ........++    .....     ......+     ",
"... ......  ........++      ....    .......      +",
".........   .......++   ...+...   ........     ...",
".......   .......++    ....++    .......+     ....",
"......   ......++     .....     .......+     .....",
"....   .......++    ......     ........    ...... ",
"...  .........     ......     ........    ......  ",
".  ..........     ......     .......     ......  .",
"  ..........     .....+     ......+    ......   ..",
"...........     .....      ......+    ......   ...",
"..........    ......      ......    .......  .....",
".........    ......     ......++   ......   ......",
".. +....   .......+    ......+++  ......   ......."};
