/* XPM */
static char * down2_xpm[] = {
"50 50 6 1",
" 	c None",
".	c #D08860",
"+	c #885038",
"@	c #F8D098",
"#	c #F8F0E0",
"$	c #181818",
"                                                  ",
"                                                  ",
"                                                  ",
"                                                  ",
"                                                  ",
"                                                  ",
"                                                  ",
"                                                  ",
"                                                  ",
"                      ....++                      ",
"                     .@@@@@.+                     ",
"                    .@@@@@@@.+                    ",
"                    .@@@@@@@.+                    ",
"                    +@@@@@@@.+                    ",
"                   ++.@@@@@..+.                   ",
"                   .+..@@@...+.                   ",
"                   .+.++..++.++                   ",
"                   +++#$@.$#+++                   ",
"                    ++#$@@$#$+                    ",
"                     $..@@..$                     ",
"                      $....$                      ",
"                     ++$++$+++                    ",
"                    +..+..++@@+                   ",
"                    .@.@@@@+@@@+                  ",
"                   +@@+@@@@.+@@+                  ",
"                  +.@.+@@@.++..@+                 ",
"                  +..+$.@@.+++@@+                 ",
"                  +..+$+@@.+$+...                 ",
"                  $++$++..++$$@@.                 ",
"                  $$$++.++++$$@@.                 ",
"                     +.@.$+++$$$$                 ",
"                     +@@.$+..$                    ",
"                     +@@.$+..$                    ",
"                      $..+$..$                    ",
"                      $..+$++$                    ",
"                     $.@.+$+$                     ",
"                     +@@.+$$$$                    ",
"                     $+++$$                       ",
"                      $$$                         ",
"                                                  ",
"                                                  ",
"                                                  ",
"                                                  ",
"                                                  ",
"                                                  ",
"                                                  ",
"                                                  ",
"                                                  ",
"                                                  ",
"                                                  "};
